<svg xmlns="http://www.w3.org/2000/svg" width="415.06" height="80.59" viewBox="0 0 415.06 80.59"><title>sra-vector-logo</title><path d="M42,80.59a40.3,40.3,0,1,1,40.29-40.3A40.3,40.3,0,0,1,42,80.59" transform="translate(-1.73)" fill="#fff"/><path d="M53.11,4.34A34.15,34.15,0,0,0,42.22,2.61C36.39,2.72,3.07,5.35,4.38,45.26c0,0,11.35-24.31,38.3-23.5a43.29,43.29,0,0,1,17.7,3.9,48.25,48.25,0,0,0-2.21-12.8C56.7,8.07,54.49,4.9,53.11,4.34Z" transform="translate(-1.73)" fill="#fec832"/><path d="M76.45,57.35A50.49,50.49,0,0,0,79,49.45c2.08-10.37,3.34-30.77-20.6-43.79,0,0,9.2,18.28,2.72,34.65,0,0-5.35,13.63-15.34,19.63a30.87,30.87,0,0,0,13,3.87C72.5,64.67,73,62.47,76.45,57.35Z" transform="translate(-1.73)" fill="#00aae8"/><path d="M31.88,76.58c11.07,1.94,24.26,4,37.4-10,0,0-24.45,2.57-36.76-11.7,0,0-9.55-12.37-10.77-24.66a57.09,57.09,0,0,0-10.66,10c-3.73,4.72-6.17,7.06-5.6,10.19.34,1.86,2.51,6.8,5,11.6,0,0,8.07,12.33,21.38,14.66" transform="translate(-1.73)" fill="#9ea0a3"/><path d="M42.22,57.64s11.22-6,15.26-17.62A35.78,35.78,0,0,0,60,29.16s-8.54-4.64-16.86-4.64c-8.77,0-15.74,2.47-18.58,4.34,0,0-.23,2.48,1.79,9.07S35.29,55.16,42.22,57.64Z" transform="translate(-1.73)" fill="#003863"/><path d="M112.05,18.17a55.41,55.41,0,0,0,.5,6.43,1.13,1.13,0,0,1-1.57.29c-1.11-3.84-3.75-5.9-7.75-5.9-4.58,0-9.49,3.92-9.49,12.13s4.74,12.63,9.69,12.63,7.3-3.59,8.42-6.4a1.18,1.18,0,0,1,1.57.29,18.31,18.31,0,0,1-1.57,6.48,30.7,30.7,0,0,1-8.38,1.52c-4,0-8.17-1-11.1-3.13A13,13,0,0,1,87.13,31.7a13.64,13.64,0,0,1,5-10.94,18.07,18.07,0,0,1,11.43-3.67A49.23,49.23,0,0,1,112.05,18.17Z" transform="translate(-1.73)" fill="#003863"/><path d="M122.37,35.66c-1,0-1.12,0-1.36.82l-1.61,4.79a4.79,4.79,0,0,0-.29,1.49c0,.24.53.49,1.69.7l1.24.2c.25.29.33,1.24-.08,1.45C120.51,45,119,45,117.29,45c-1.4,0-2.35.13-4.25.13-.45-.25-.41-1.12-.12-1.45l1.11-.12a2.83,2.83,0,0,0,2.52-2.06c.7-1.65,1.49-3.63,2.6-6.6l3.75-10.07c.95-2.6,1.65-4,1.53-5.24,2-.46,3.51-2.48,3.59-2.48.54,0,.78.21.95.83.33,1.19.82,2.72,1.86,5.65l5.61,16.17c.86,2.48,1.24,3.43,2.76,3.68l1.57.24c.25.21.33,1.2,0,1.45-2-.09-4.21-.13-6.36-.13s-3.67,0-5.57.13a1,1,0,0,1-.08-1.45l1.32-.2c1-.17,1.12-.46,1.12-.7a17.25,17.25,0,0,0-.79-2.81l-1.11-3.55c-.21-.66-.54-.74-2-.74Zm4.7-2.19c1,0,1.16-.12.83-1.19l-1.08-3.35c-.57-1.77-1.32-4-1.69-4.86-.33.94-1.15,3.17-1.77,5.07l-1,3.1c-.37,1.11-.17,1.23.86,1.23Z" transform="translate(-1.73)" fill="#003863"/><path d="M144.36,24.44c0-4.13-.09-4.58-1.82-4.83l-1.11-.17a.94.94,0,0,1,.08-1.44c3.09-.21,6.31-.37,10.23-.37,3.51,0,6.52.54,8.09,1.48a6.78,6.78,0,0,1,3.63,6.11c0,3.67-2.47,5.24-4.37,6.19-.42.21-.42.45-.21.91,2.72,5.53,4.42,8.62,6.4,10.31A5,5,0,0,0,168,43.79a.79.79,0,0,1,.17,1.07,9.91,9.91,0,0,1-3.26.37c-3.8,0-6.19-1.36-8-4.33a51.81,51.81,0,0,1-3.22-6.4,2.09,2.09,0,0,0-2.18-1.44c-1.45,0-1.53.08-1.53.91V39c0,3.8.25,4.09,2.1,4.42l1.12.2a1.32,1.32,0,0,1,0,1.45C151,45,149.14,45,147.16,45s-3.88,0-6,.13a1.19,1.19,0,0,1,0-1.45l1.11-.2c1.86-.33,2.11-.62,2.11-4.42ZM150,29.68c0,1.44.12,1.57,2.56,1.57a4,4,0,0,0,3.13-1.16,6,6,0,0,0,1.49-4.46c0-3.71-2.19-6.1-5.41-6.1-1.69,0-1.77.12-1.77,2.1Z" transform="translate(-1.73)" fill="#003863"/><path d="M177.65,28.48c0,1.16,0,1.24,1.16,1.24h2.84c2.15,0,2.64-.29,3.06-2.27l.2-1c.29-.33,1.32-.33,1.53,0-.08,1.32-.12,2.8-.12,4.37s0,3.06.12,4.38a1.19,1.19,0,0,1-1.53,0l-.2-1c-.42-2-.91-2.31-3.06-2.31h-2.84c-1.12,0-1.16,0-1.16,1.27v4.91c0,1.9.17,3.22.66,3.92s1.32,1.08,4.33,1.08c3.59,0,5-.13,7.27-4.79a1,1,0,0,1,1.52.21,23.25,23.25,0,0,1-1.73,6.6c-2.19-.09-6.15-.13-9.53-.13h-5.36c-2,0-4,0-7.1.13a1.19,1.19,0,0,1,0-1.45l1.94-.29c1.85-.28,2.1-.53,2.1-4.33V23.65c0-3.75-.25-4-2.1-4.37l-1-.21a1,1,0,0,1,.08-1.44c1.94.08,4,.12,5.94.12h8.75c2.64,0,5,0,5.53-.12,0,.66.33,3.63.53,6.39-.16.46-1.11.54-1.52.17a9.85,9.85,0,0,0-1.57-3.26,5.45,5.45,0,0,0-4.05-1.28H179c-1.36,0-1.36.08-1.36,1.61Z" transform="translate(-1.73)" fill="#003863"/><path d="M202.12,28.48c0,1.16,0,1.24,1.15,1.24h2.85c2.15,0,2.64-.29,3-2.27l.21-1c.29-.33,1.32-.33,1.53,0-.09,1.32-.13,2.8-.13,4.37s0,3.06.13,4.38a1.19,1.19,0,0,1-1.53,0l-.21-1c-.41-2-.9-2.31-3-2.31h-2.85c-1.11,0-1.15,0-1.15,1.27v4.91c0,1.9.16,3.22.66,3.92s1.32,1.08,4.33,1.08c3.59,0,5-.13,7.26-4.79a1,1,0,0,1,1.53.21,23.93,23.93,0,0,1-1.73,6.6C212,45,208,45,204.63,45h-5.36c-2,0-4,0-7.1.13a1.19,1.19,0,0,1,0-1.45l1.94-.29c1.86-.28,2.11-.53,2.11-4.33V23.65c0-3.75-.25-4-2.11-4.37l-1-.21a1,1,0,0,1,.08-1.44c1.94.08,4,.12,6,.12h8.74c2.64,0,5,0,5.53-.12,0,.66.33,3.63.54,6.39-.17.46-1.12.54-1.53.17a9.47,9.47,0,0,0-1.57-3.26,5.43,5.43,0,0,0-4-1.28h-3.3c-1.36,0-1.36.08-1.36,1.61Z" transform="translate(-1.73)" fill="#003863"/><path d="M220.68,24.44c0-4.13-.08-4.58-1.81-4.83l-1.12-.17a.94.94,0,0,1,.08-1.44c3.1-.21,6.32-.37,10.24-.37,3.51,0,6.52.54,8.08,1.48a6.77,6.77,0,0,1,3.64,6.11c0,3.67-2.48,5.24-4.38,6.19-.41.21-.41.45-.2.91,2.72,5.53,4.41,8.62,6.39,10.31a5,5,0,0,0,2.77,1.16.78.78,0,0,1,.16,1.07,9.91,9.91,0,0,1-3.26.37c-3.8,0-6.19-1.36-8-4.33a51.81,51.81,0,0,1-3.22-6.4,2.1,2.1,0,0,0-2.19-1.44c-1.44,0-1.53.08-1.53.91V39c0,3.8.25,4.09,2.11,4.42l1.11.2a1.32,1.32,0,0,1,0,1.45c-2.18-.09-4.08-.13-6.06-.13s-3.88,0-6,.13a1.19,1.19,0,0,1,0-1.45l1.12-.2c1.85-.33,2.1-.62,2.1-4.42Zm5.65,5.24c0,1.44.13,1.57,2.56,1.57A4,4,0,0,0,232,30.09a6,6,0,0,0,1.48-4.46c0-3.71-2.18-6.1-5.4-6.1-1.69,0-1.78.12-1.78,2.1Z" transform="translate(-1.73)" fill="#003863"/><path d="M279.85,18.17a54.81,54.81,0,0,0,.49,6.43,1.13,1.13,0,0,1-1.57.29C277.66,21.05,275,19,271,19c-4.58,0-9.49,3.92-9.49,12.13s4.74,12.63,9.69,12.63,7.31-3.59,8.42-6.4a1.18,1.18,0,0,1,1.57.29,18.31,18.31,0,0,1-1.57,6.48,30.7,30.7,0,0,1-8.38,1.52c-4,0-8.17-1-11.09-3.13a13,13,0,0,1-5.25-10.81,13.64,13.64,0,0,1,5-10.94,18.09,18.09,0,0,1,11.43-3.67A49.56,49.56,0,0,1,279.85,18.17Z" transform="translate(-1.73)" fill="#003863"/><path d="M292.3,28.48c0,1.16.05,1.24,1.16,1.24h2.85c2.14,0,2.64-.29,3.05-2.27l.21-1c.29-.33,1.32-.33,1.52,0-.08,1.32-.12,2.8-.12,4.37s0,3.06.12,4.38a1.18,1.18,0,0,1-1.52,0l-.21-1c-.41-2-.91-2.31-3.05-2.31h-2.85c-1.11,0-1.16,0-1.16,1.27v4.91c0,1.9.17,3.22.66,3.92s1.33,1.08,4.34,1.08c3.59,0,5-.13,7.26-4.79a1,1,0,0,1,1.53.21,23.56,23.56,0,0,1-1.74,6.6c-2.18-.09-6.14-.13-9.53-.13h-5.36c-2,0-4,0-7.1.13a1.19,1.19,0,0,1,0-1.45l1.94-.29c1.86-.28,2.11-.53,2.11-4.33V23.65c0-3.75-.25-4-2.11-4.37l-1-.21a1,1,0,0,1,.08-1.44c1.94.08,4,.12,5.94.12H298c2.64,0,5,0,5.53-.12,0,.66.33,3.63.54,6.39-.17.46-1.12.54-1.53.17A9.66,9.66,0,0,0,301,20.93a5.43,5.43,0,0,0-4-1.28h-3.3c-1.37,0-1.37.08-1.37,1.61Z" transform="translate(-1.73)" fill="#003863"/><path d="M333.07,38c0,2.68,0,5.28.08,6.64a3.23,3.23,0,0,1-2.43,1c-.05,0-1.41-2.1-3.35-4.5l-9.53-11.8a58.21,58.21,0,0,0-4.5-5.28,7.56,7.56,0,0,0-.2,2.64v8c0,3.34.16,6.43.62,7.55.37.86,1.32,1.15,2.39,1.32l1.16.16a1.33,1.33,0,0,1,0,1.45c-2.23-.09-3.88-.13-5.53-.13s-3.06,0-4.62.13a1.32,1.32,0,0,1,0-1.45l.7-.12c1.11-.21,1.94-.5,2.27-1.36.45-1.12.57-4.21.57-7.55V24.15c0-2.27,0-2.93-.28-3.51s-.91-1.2-2.36-1.4l-1.15-.17c-.29-.33-.25-1.32.16-1.44,1.94.08,4,.12,5.7.12,1.4,0,2.6,0,3.46-.12.42,1.86,3.1,5,6.81,9.41l3.47,4.08c1.81,2.15,3,3.59,4,4.54a6.09,6.09,0,0,0,.16-1.86V28.11c0-3.34-.16-6.44-.62-7.55-.37-.87-1.27-1.16-2.39-1.32l-1.11-.17a1.3,1.3,0,0,1,0-1.44c2.23.08,3.83.12,5.53.12,1.52,0,3,0,4.62-.12a1.32,1.32,0,0,1,0,1.44l-.75.13a2.5,2.5,0,0,0-2.22,1.36c-.46,1.11-.62,4.21-.62,7.55Z" transform="translate(-1.73)" fill="#003863"/><path d="M347.55,20.85c0-1,0-1.2-1-1.2H344c-3,0-3.88,1.65-5.12,4.66a1.14,1.14,0,0,1-1.52-.37,51.6,51.6,0,0,0,1.36-7,.94.94,0,0,1,.58-.21.89.89,0,0,1,.57.17c.21.7.33.86,3.47.86h15.35c2.72,0,3.34,0,3.71-.9a1,1,0,0,1,.54-.13.93.93,0,0,1,.62.29,28.47,28.47,0,0,0-.62,7.1c-.21.37-1.32.45-1.53.12-.7-2.64-1.28-4.58-4.37-4.58h-2.48c-1,0-1.11.12-1.11,1.2V39c0,3.84.25,4.17,2.1,4.42l1.65.2a1.32,1.32,0,0,1,0,1.45c-2.68-.09-4.74-.13-6.6-.13s-4.13,0-7,.13a1.19,1.19,0,0,1,0-1.45l1.85-.2c1.86-.21,2.11-.58,2.11-4.42Z" transform="translate(-1.73)" fill="#003863"/><path d="M374.24,28.48c0,1.16,0,1.24,1.16,1.24h2.84c2.15,0,2.64-.29,3.06-2.27l.2-1c.29-.33,1.32-.33,1.53,0-.08,1.32-.12,2.8-.12,4.37s0,3.06.12,4.38a1.19,1.19,0,0,1-1.53,0l-.2-1c-.42-2-.91-2.31-3.06-2.31H375.4c-1.12,0-1.16,0-1.16,1.27v4.91c0,1.9.17,3.22.66,3.92s1.32,1.08,4.33,1.08c3.59,0,5-.13,7.27-4.79a1,1,0,0,1,1.52.21,23.25,23.25,0,0,1-1.73,6.6c-2.19-.09-6.15-.13-9.53-.13h-5.37c-2,0-4,0-7.09.13a1.19,1.19,0,0,1,0-1.45l1.94-.29c1.85-.28,2.1-.53,2.1-4.33V23.65c0-3.75-.25-4-2.1-4.37l-1-.21a1,1,0,0,1,.09-1.44c1.94.08,4,.12,5.94.12H380c2.64,0,5,0,5.52-.12.05.66.33,3.63.54,6.39-.16.46-1.11.54-1.53.17A9.67,9.67,0,0,0,383,20.93a5.47,5.47,0,0,0-4.05-1.28h-3.3c-1.36,0-1.36.08-1.36,1.61Z" transform="translate(-1.73)" fill="#003863"/><path d="M392.81,24.44c0-4.13-.09-4.58-1.82-4.83l-1.11-.17A.93.93,0,0,1,390,18c3.09-.21,6.31-.37,10.23-.37,3.51,0,6.52.54,8.09,1.48a6.78,6.78,0,0,1,3.63,6.11c0,3.67-2.48,5.24-4.37,6.19-.42.21-.42.45-.21.91,2.72,5.53,4.41,8.62,6.39,10.31a5.05,5.05,0,0,0,2.77,1.16.78.78,0,0,1,.16,1.07,9.91,9.91,0,0,1-3.26.37c-3.79,0-6.18-1.36-8-4.33a51.81,51.81,0,0,1-3.22-6.4A2.09,2.09,0,0,0,400,33.06c-1.44,0-1.52.08-1.52.91V39c0,3.8.25,4.09,2.1,4.42l1.12.2a1.36,1.36,0,0,1,0,1.45c-2.19-.09-4.09-.13-6.07-.13s-3.88,0-6,.13a1.19,1.19,0,0,1,0-1.45l1.11-.2c1.86-.33,2.11-.62,2.11-4.42Zm5.65,5.24c0,1.44.12,1.57,2.56,1.57a4,4,0,0,0,3.13-1.16,6,6,0,0,0,1.49-4.46c0-3.71-2.19-6.1-5.41-6.1-1.69,0-1.77.12-1.77,2.1Z" transform="translate(-1.73)" fill="#003863"/><path d="M98.32,59.52a.27.27,0,0,1,.2.09l.54.59a4.38,4.38,0,0,1-1.5,1.11,5.17,5.17,0,0,1-2.12.4,5,5,0,0,1-2-.38,4.36,4.36,0,0,1-1.51-1,4.84,4.84,0,0,1-1-1.62,6,6,0,0,1-.34-2.08A5.77,5.77,0,0,1,91,54.51a4.68,4.68,0,0,1,1-1.63,4.53,4.53,0,0,1,1.55-1.05,5.11,5.11,0,0,1,2-.38,4.79,4.79,0,0,1,1.89.35,4.52,4.52,0,0,1,1.44.93l-.44.62a.63.63,0,0,1-.11.12.34.34,0,0,1-.18,0,.49.49,0,0,1-.31-.14,4.16,4.16,0,0,0-.48-.3,3.66,3.66,0,0,0-.73-.3,3.44,3.44,0,0,0-1.09-.14,3.67,3.67,0,0,0-1.42.27,3.11,3.11,0,0,0-1.11.78,3.48,3.48,0,0,0-.72,1.25,5,5,0,0,0-.26,1.65,4.85,4.85,0,0,0,.27,1.68,3.72,3.72,0,0,0,.74,1.24,3,3,0,0,0,1.09.77,3.49,3.49,0,0,0,1.37.27,6.51,6.51,0,0,0,.81,0,3.46,3.46,0,0,0,.67-.17,2.67,2.67,0,0,0,.56-.28,3.89,3.89,0,0,0,.52-.41A.37.37,0,0,1,98.32,59.52Z" transform="translate(-1.73)"/><path d="M103.19,54.39a3.68,3.68,0,0,1,1.4.26,2.94,2.94,0,0,1,1.06.74,3.14,3.14,0,0,1,.68,1.15,5.07,5.07,0,0,1,0,3,3.22,3.22,0,0,1-.68,1.15,3,3,0,0,1-1.06.73,4.07,4.07,0,0,1-2.81,0,3,3,0,0,1-1.07-.73,3.37,3.37,0,0,1-.68-1.15,5.07,5.07,0,0,1,0-3,3.28,3.28,0,0,1,.68-1.15,2.9,2.9,0,0,1,1.07-.74A3.69,3.69,0,0,1,103.19,54.39Zm0,6.33a1.83,1.83,0,0,0,1.57-.7,4.06,4.06,0,0,0,0-3.94,1.83,1.83,0,0,0-1.57-.71,2.06,2.06,0,0,0-.93.19,1.76,1.76,0,0,0-.66.52,2.51,2.51,0,0,0-.39.84,4.39,4.39,0,0,0-.13,1.13,3.25,3.25,0,0,0,.52,2A1.85,1.85,0,0,0,103.19,60.72Z" transform="translate(-1.73)"/><path d="M109.31,55.53c.16-.17.32-.32.49-.47a6.49,6.49,0,0,1,.55-.36,3.29,3.29,0,0,1,.62-.23,3.13,3.13,0,0,1,.7-.08,2.56,2.56,0,0,1,1,.2,2,2,0,0,1,.74.54,2.39,2.39,0,0,1,.45.85,3.8,3.8,0,0,1,.15,1.1V61.6h-1.25V57.08a1.88,1.88,0,0,0-.37-1.25,1.36,1.36,0,0,0-1.11-.44,2.16,2.16,0,0,0-1,.26,3.52,3.52,0,0,0-.89.72V61.6h-1.25V54.51h.75a.3.3,0,0,1,.32.25Z" transform="translate(-1.73)"/><path d="M117.12,55.53c.16-.17.32-.32.49-.47a6.49,6.49,0,0,1,.55-.36,3.29,3.29,0,0,1,.62-.23,3.13,3.13,0,0,1,.7-.08,2.56,2.56,0,0,1,1,.2,1.92,1.92,0,0,1,.74.54,2.39,2.39,0,0,1,.45.85,3.48,3.48,0,0,1,.16,1.1V61.6H120.6V57.08a1.94,1.94,0,0,0-.36-1.25,1.4,1.4,0,0,0-1.12-.44,2.16,2.16,0,0,0-1,.26,3.52,3.52,0,0,0-.89.72V61.6H116V54.51h.75a.31.31,0,0,1,.33.25Z" transform="translate(-1.73)"/><path d="M129.52,60.6a2.41,2.41,0,0,1-.56.49,3.17,3.17,0,0,1-.69.34,4.71,4.71,0,0,1-.76.2,5.09,5.09,0,0,1-.77.06,3.74,3.74,0,0,1-1.36-.24,3,3,0,0,1-1.07-.73,3.26,3.26,0,0,1-.7-1.19,4.75,4.75,0,0,1-.26-1.62,4.18,4.18,0,0,1,.23-1.39,3.22,3.22,0,0,1,.66-1.12,3,3,0,0,1,1-.74,3.41,3.41,0,0,1,1.39-.27,3.1,3.1,0,0,1,1.18.22,2.55,2.55,0,0,1,.93.61,2.74,2.74,0,0,1,.62,1,3.73,3.73,0,0,1,.23,1.34.74.74,0,0,1-.07.4.26.26,0,0,1-.23.09h-4.74a4,4,0,0,0,.18,1.17,2.45,2.45,0,0,0,.46.83,1.92,1.92,0,0,0,.7.5,2.38,2.38,0,0,0,.91.16,2.8,2.8,0,0,0,.81-.1,3.64,3.64,0,0,0,.58-.24,3.54,3.54,0,0,0,.41-.23.5.5,0,0,1,.29-.11.29.29,0,0,1,.24.12Zm-1-3.32a2.28,2.28,0,0,0-.13-.8,1.79,1.79,0,0,0-.35-.62,1.66,1.66,0,0,0-.57-.41,2.07,2.07,0,0,0-.77-.14,1.89,1.89,0,0,0-1.41.52,2.42,2.42,0,0,0-.65,1.45Z" transform="translate(-1.73)"/><path d="M136.09,55.77a.56.56,0,0,1-.11.11.25.25,0,0,1-.16,0,.4.4,0,0,1-.23-.09,3.54,3.54,0,0,0-.31-.19,2.53,2.53,0,0,0-.46-.2,2.09,2.09,0,0,0-.66-.08,2.19,2.19,0,0,0-.92.18,1.76,1.76,0,0,0-.67.54,2.53,2.53,0,0,0-.41.84,4.8,4.8,0,0,0,0,2.26,2.36,2.36,0,0,0,.42.84,1.81,1.81,0,0,0,.65.52,2,2,0,0,0,.86.18,2.28,2.28,0,0,0,.75-.11,2.24,2.24,0,0,0,.49-.24l.32-.24a.35.35,0,0,1,.25-.11.26.26,0,0,1,.24.12l.35.45a2.41,2.41,0,0,1-.52.49,3,3,0,0,1-.64.34,3.23,3.23,0,0,1-.71.2,4.74,4.74,0,0,1-.75.06,3.15,3.15,0,0,1-1.24-.24,2.78,2.78,0,0,1-1-.71,3.31,3.31,0,0,1-.66-1.15,4.57,4.57,0,0,1-.24-1.54,4.92,4.92,0,0,1,.22-1.47,3.41,3.41,0,0,1,.65-1.15,2.83,2.83,0,0,1,1-.76,3.38,3.38,0,0,1,1.43-.28,3.41,3.41,0,0,1,1.32.24,3.3,3.3,0,0,1,1,.69Z" transform="translate(-1.73)"/><path d="M144.42,61.6h-1.25V55.55h-3.65V59.8a.94.94,0,0,0,.21.67.8.8,0,0,0,.56.22.83.83,0,0,0,.34-.06,1.17,1.17,0,0,0,.25-.11l.18-.12a.27.27,0,0,1,.13,0c.07,0,.12,0,.18.12l.36.59a2.28,2.28,0,0,1-.78.48,2.7,2.7,0,0,1-.94.17,1.71,1.71,0,0,1-1.29-.47,1.87,1.87,0,0,1-.45-1.35V55.55h-.85a.25.25,0,0,1-.19-.07.26.26,0,0,1-.08-.21v-.49l1.16-.16.29-2.18a.27.27,0,0,1,.1-.17.24.24,0,0,1,.19-.07h.63v2.44h4.9Zm.31-9.37a.81.81,0,0,1-.08.34,1.07,1.07,0,0,1-.19.28,1.12,1.12,0,0,1-.29.19,1,1,0,0,1-.68,0,.9.9,0,0,1-.47-.47,1,1,0,0,1-.07-.34,1,1,0,0,1,.07-.35.92.92,0,0,1,.19-.28,1.1,1.1,0,0,1,.28-.2.86.86,0,0,1,.68,0,1.15,1.15,0,0,1,.29.2.92.92,0,0,1,.19.28A.85.85,0,0,1,144.73,52.23Z" transform="translate(-1.73)"/><path d="M147.64,55.53a5.44,5.44,0,0,1,.49-.47,4.35,4.35,0,0,1,.55-.36,3.19,3.19,0,0,1,.61-.23,3.15,3.15,0,0,1,.71-.08,2.51,2.51,0,0,1,1,.2,1.85,1.85,0,0,1,.74.54,2.57,2.57,0,0,1,.46.85,3.8,3.8,0,0,1,.15,1.1V61.6h-1.25V57.08a1.94,1.94,0,0,0-.37-1.25,1.4,1.4,0,0,0-1.12-.44,2.16,2.16,0,0,0-1,.26,3.71,3.71,0,0,0-.89.72V61.6h-1.25V54.51h.75a.3.3,0,0,1,.33.25Z" transform="translate(-1.73)"/><path d="M160.26,54.79v.46c0,.15-.1.25-.3.29l-.8.11a2.13,2.13,0,0,1,.24,1,2.23,2.23,0,0,1-.2.94,2.3,2.3,0,0,1-.55.72,2.45,2.45,0,0,1-.84.47,3.64,3.64,0,0,1-1.07.16,3.48,3.48,0,0,1-.93-.12,1.17,1.17,0,0,0-.35.3.51.51,0,0,0-.12.31.44.44,0,0,0,.21.39,1.71,1.71,0,0,0,.54.18,5.63,5.63,0,0,0,.77.07l.88,0a6.22,6.22,0,0,1,.88.11,2.49,2.49,0,0,1,.77.25,1.32,1.32,0,0,1,.54.48,1.4,1.4,0,0,1,.21.8,1.86,1.86,0,0,1-.23.88,2.44,2.44,0,0,1-.65.76,3.45,3.45,0,0,1-1,.53,4.64,4.64,0,0,1-1.4.2,5.41,5.41,0,0,1-1.35-.15,3.22,3.22,0,0,1-1-.42,1.81,1.81,0,0,1-.58-.59,1.44,1.44,0,0,1-.19-.72,1.27,1.27,0,0,1,.33-.88,2.16,2.16,0,0,1,.9-.58,1.38,1.38,0,0,1-.5-.38,1,1,0,0,1-.18-.63,1.19,1.19,0,0,1,0-.32,1.73,1.73,0,0,1,.17-.33,2.09,2.09,0,0,1,.29-.31,1.56,1.56,0,0,1,.39-.26,2.28,2.28,0,0,1-.82-.78,2.11,2.11,0,0,1-.29-1.13,2.06,2.06,0,0,1,.2-.94,1.87,1.87,0,0,1,.55-.72,2.4,2.4,0,0,1,.85-.46,3.4,3.4,0,0,1,1.08-.16,3.46,3.46,0,0,1,.87.1,2.55,2.55,0,0,1,.72.3ZM159,62a.6.6,0,0,0-.15-.42.91.91,0,0,0-.39-.25,2.93,2.93,0,0,0-.58-.13q-.33,0-.69-.06l-.75,0L155.7,61a1.91,1.91,0,0,0-.64.46,1,1,0,0,0-.25.64.81.81,0,0,0,.13.45,1.07,1.07,0,0,0,.37.36,2,2,0,0,0,.63.23,4,4,0,0,0,.9.09,4.19,4.19,0,0,0,.91-.09,2.29,2.29,0,0,0,.67-.26,1.08,1.08,0,0,0,.42-.4A.9.9,0,0,0,159,62Zm-2.25-3.85a1.93,1.93,0,0,0,.67-.1,1.31,1.31,0,0,0,.48-.3,1.19,1.19,0,0,0,.3-.45,1.76,1.76,0,0,0,.09-.58,1.37,1.37,0,0,0-.39-1,1.57,1.57,0,0,0-1.15-.39,1.59,1.59,0,0,0-1.15.39,1.37,1.37,0,0,0-.39,1,1.54,1.54,0,0,0,.1.58,1.19,1.19,0,0,0,.3.45,1.31,1.31,0,0,0,.48.3A1.91,1.91,0,0,0,156.74,58.13Z" transform="translate(-1.73)"/><path d="M170.89,60.6a2.36,2.36,0,0,1-.55.49,3.68,3.68,0,0,1-.69.34,5,5,0,0,1-.76.2,5.12,5.12,0,0,1-.78.06,3.68,3.68,0,0,1-1.35-.24,3,3,0,0,1-1.07-.73,3.43,3.43,0,0,1-.71-1.19,5,5,0,0,1-.25-1.62,4.18,4.18,0,0,1,.23-1.39,3.36,3.36,0,0,1,.65-1.12,3.17,3.17,0,0,1,1-.74,3.4,3.4,0,0,1,1.38-.27,3,3,0,0,1,1.18.22,2.59,2.59,0,0,1,.94.61,2.88,2.88,0,0,1,.62,1,3.73,3.73,0,0,1,.22,1.34.89.89,0,0,1-.06.4.27.27,0,0,1-.24.09H166a4.34,4.34,0,0,0,.19,1.17,2.29,2.29,0,0,0,.46.83,1.84,1.84,0,0,0,.7.5,2.38,2.38,0,0,0,.91.16,2.8,2.8,0,0,0,.81-.1,4.07,4.07,0,0,0,.58-.24l.41-.23a.48.48,0,0,1,.28-.11.26.26,0,0,1,.24.12Zm-1-3.32a2.53,2.53,0,0,0-.12-.8,1.66,1.66,0,0,0-.36-.62,1.49,1.49,0,0,0-.57-.41,2,2,0,0,0-.76-.14,1.91,1.91,0,0,0-1.42.52,2.47,2.47,0,0,0-.64,1.45Z" transform="translate(-1.73)"/><path d="M173.82,51.29V61.6h-1.25V51.29Z" transform="translate(-1.73)"/><path d="M177.42,52.28a.81.81,0,0,1-.08.34,1.07,1.07,0,0,1-.19.28,1.12,1.12,0,0,1-.29.19.84.84,0,0,1-.35.07.8.8,0,0,1-.34-.07,1,1,0,0,1-.27-.19.87.87,0,0,1-.19-.28.8.8,0,0,1-.07-.34.84.84,0,0,1,.07-.35.77.77,0,0,1,.19-.28.86.86,0,0,1,.27-.2,1,1,0,0,1,.34-.07,1,1,0,0,1,.35.07.94.94,0,0,1,.29.2.92.92,0,0,1,.19.28A.85.85,0,0,1,177.42,52.28Zm-.27,2.23V61.6H175.9V54.51Z" transform="translate(-1.73)"/><path d="M181.37,61.71a1.71,1.71,0,0,1-1.29-.47,1.87,1.87,0,0,1-.45-1.35V55.55h-.86a.28.28,0,0,1-.19-.07.25.25,0,0,1-.07-.21v-.49l1.16-.15.29-2.19a.26.26,0,0,1,.09-.17.25.25,0,0,1,.19-.07h.63v2.44h2v.91h-2V59.8a1,1,0,0,0,.22.67.77.77,0,0,0,.56.22.9.9,0,0,0,.34-.06l.25-.11.18-.12a.27.27,0,0,1,.13,0,.21.21,0,0,1,.17.12l.36.59a2.24,2.24,0,0,1-.77.48A2.79,2.79,0,0,1,181.37,61.71Z" transform="translate(-1.73)"/><path d="M189.93,60.6a2.36,2.36,0,0,1-.55.49,3.68,3.68,0,0,1-.69.34,5,5,0,0,1-.76.2,5.12,5.12,0,0,1-.78.06,3.68,3.68,0,0,1-1.35-.24,3,3,0,0,1-1.07-.73,3.43,3.43,0,0,1-.71-1.19,5,5,0,0,1-.25-1.62,4.18,4.18,0,0,1,.23-1.39,3.36,3.36,0,0,1,.65-1.12,3.17,3.17,0,0,1,1-.74,3.4,3.4,0,0,1,1.38-.27,3,3,0,0,1,1.18.22,2.59,2.59,0,0,1,.94.61,2.88,2.88,0,0,1,.62,1,3.73,3.73,0,0,1,.22,1.34.89.89,0,0,1-.06.4.27.27,0,0,1-.24.09H185a4.34,4.34,0,0,0,.19,1.17,2.29,2.29,0,0,0,.46.83,1.84,1.84,0,0,0,.7.5,2.38,2.38,0,0,0,.91.16,2.8,2.8,0,0,0,.81-.1,4.07,4.07,0,0,0,.58-.24l.41-.23a.48.48,0,0,1,.28-.11.26.26,0,0,1,.24.12Zm-1-3.32a2.53,2.53,0,0,0-.12-.8,1.66,1.66,0,0,0-.36-.62,1.49,1.49,0,0,0-.57-.41,2,2,0,0,0-.76-.14,1.91,1.91,0,0,0-1.42.52,2.47,2.47,0,0,0-.64,1.45Z" transform="translate(-1.73)"/><path d="M196.34,55.93a3.16,3.16,0,0,1,.82-1.14,1.84,1.84,0,0,1,1.2-.41,2,2,0,0,1,.43,0,1.11,1.11,0,0,1,.37.15l-.09.93a.2.2,0,0,1-.21.18l-.29,0a1.86,1.86,0,0,0-1,.05,1.53,1.53,0,0,0-.47.29,2.34,2.34,0,0,0-.37.48,3.26,3.26,0,0,0-.29.65V61.6h-1.26V54.51h.72a.41.41,0,0,1,.28.07.49.49,0,0,1,.1.27Z" transform="translate(-1.73)"/><path d="M205.72,60.6a2.41,2.41,0,0,1-.56.49,3.17,3.17,0,0,1-.69.34,4.45,4.45,0,0,1-.76.2,5.09,5.09,0,0,1-.77.06,3.78,3.78,0,0,1-1.36-.24,3,3,0,0,1-1.07-.73,3.41,3.41,0,0,1-.7-1.19,4.75,4.75,0,0,1-.25-1.62,4.18,4.18,0,0,1,.22-1.39,3.39,3.39,0,0,1,.66-1.12,3,3,0,0,1,1-.74,3.41,3.41,0,0,1,1.39-.27,3.06,3.06,0,0,1,1.18.22,2.55,2.55,0,0,1,.93.61,2.74,2.74,0,0,1,.62,1,3.73,3.73,0,0,1,.23,1.34.89.89,0,0,1-.06.4.3.3,0,0,1-.24.09h-4.74a4,4,0,0,0,.18,1.17,2.45,2.45,0,0,0,.46.83,1.92,1.92,0,0,0,.7.5,2.42,2.42,0,0,0,.91.16,2.8,2.8,0,0,0,.81-.1,4.23,4.23,0,0,0,.59-.24,4.34,4.34,0,0,0,.4-.23.5.5,0,0,1,.29-.11.29.29,0,0,1,.24.12Zm-1-3.32a2.53,2.53,0,0,0-.12-.8,2,2,0,0,0-.36-.62,1.66,1.66,0,0,0-.57-.41,2.06,2.06,0,0,0-.76-.14,1.91,1.91,0,0,0-1.42.52,2.42,2.42,0,0,0-.65,1.45Z" transform="translate(-1.73)"/><path d="M211.48,55.67a.26.26,0,0,1-.25.16.52.52,0,0,1-.24-.08l-.33-.17a4.45,4.45,0,0,0-.46-.18,2.25,2.25,0,0,0-.63-.08,1.89,1.89,0,0,0-.56.08,1.26,1.26,0,0,0-.43.23,1.06,1.06,0,0,0-.28.32.9.9,0,0,0-.09.4.65.65,0,0,0,.16.46,1.34,1.34,0,0,0,.41.31,3.62,3.62,0,0,0,.59.24l.68.21.67.26a2.3,2.3,0,0,1,.59.35,1.74,1.74,0,0,1,.42.51,1.68,1.68,0,0,1,.15.74,2.4,2.4,0,0,1-.17.9,2,2,0,0,1-.52.72,2.31,2.31,0,0,1-.84.48,3.35,3.35,0,0,1-1.15.18,3.59,3.59,0,0,1-1.34-.24,3.43,3.43,0,0,1-1-.62l.29-.48a.44.44,0,0,1,.13-.14.39.39,0,0,1,.2,0,.56.56,0,0,1,.27.1l.33.22a2.49,2.49,0,0,0,.49.21,2.12,2.12,0,0,0,.72.1,2,2,0,0,0,.63-.09,1.46,1.46,0,0,0,.46-.26,1.07,1.07,0,0,0,.27-.37,1.12,1.12,0,0,0,.08-.45.74.74,0,0,0-.15-.48,1.4,1.4,0,0,0-.42-.33,3.62,3.62,0,0,0-.59-.24l-.68-.21c-.23-.08-.46-.16-.68-.26a2.66,2.66,0,0,1-.59-.36,1.63,1.63,0,0,1-.42-.54,1.79,1.79,0,0,1-.15-.77,1.91,1.91,0,0,1,.16-.78,2.11,2.11,0,0,1,.49-.66,2.43,2.43,0,0,1,.79-.45,3.26,3.26,0,0,1,1.08-.17,3.52,3.52,0,0,1,1.25.22,3,3,0,0,1,1,.61Z" transform="translate(-1.73)"/><path d="M219.17,60.6a2.36,2.36,0,0,1-.55.49,3.68,3.68,0,0,1-.69.34,5,5,0,0,1-.76.2,5.12,5.12,0,0,1-.78.06,3.68,3.68,0,0,1-1.35-.24,3,3,0,0,1-1.07-.73,3.28,3.28,0,0,1-.71-1.19,4.75,4.75,0,0,1-.25-1.62,4.18,4.18,0,0,1,.23-1.39,3.36,3.36,0,0,1,.65-1.12,3.07,3.07,0,0,1,1.05-.74,3.4,3.4,0,0,1,1.38-.27,3,3,0,0,1,1.18.22,2.68,2.68,0,0,1,.94.61,2.88,2.88,0,0,1,.62,1,3.73,3.73,0,0,1,.22,1.34.89.89,0,0,1-.06.4.27.27,0,0,1-.24.09h-4.74a4.34,4.34,0,0,0,.19,1.17,2.29,2.29,0,0,0,.46.83,1.84,1.84,0,0,0,.7.5,2.38,2.38,0,0,0,.91.16,2.69,2.69,0,0,0,.8-.1,3.78,3.78,0,0,0,.59-.24l.41-.23a.48.48,0,0,1,.28-.11.29.29,0,0,1,.24.12Zm-1-3.32a2.53,2.53,0,0,0-.12-.8,1.66,1.66,0,0,0-.36-.62,1.49,1.49,0,0,0-.57-.41,2,2,0,0,0-.76-.14,1.91,1.91,0,0,0-1.42.52,2.48,2.48,0,0,0-.65,1.45Z" transform="translate(-1.73)"/><path d="M220.63,55.51a4.06,4.06,0,0,1,1.26-.85,3.9,3.9,0,0,1,1.51-.28,2.74,2.74,0,0,1,1.06.19,2.4,2.4,0,0,1,.77.55,2.35,2.35,0,0,1,.48.85,3.42,3.42,0,0,1,.16,1.09V61.6h-.55a.51.51,0,0,1-.28-.06.41.41,0,0,1-.16-.24l-.14-.67a7,7,0,0,1-.54.46,3.57,3.57,0,0,1-.56.33,2.34,2.34,0,0,1-.63.21,3.36,3.36,0,0,1-.74.08,2.54,2.54,0,0,1-.78-.12,1.63,1.63,0,0,1-1.06-.93,2.1,2.1,0,0,1-.15-.84,1.5,1.5,0,0,1,.23-.8,2,2,0,0,1,.75-.69,4.85,4.85,0,0,1,1.35-.5,11,11,0,0,1,2-.22v-.55a1.88,1.88,0,0,0-.36-1.25,1.27,1.27,0,0,0-1-.42,2.41,2.41,0,0,0-.77.11,3.41,3.41,0,0,0-.54.26l-.39.26a.56.56,0,0,1-.33.12.41.41,0,0,1-.22-.07.5.5,0,0,1-.15-.17Zm4,2.89a11.14,11.14,0,0,0-1.47.14,4.32,4.32,0,0,0-1,.28,1.31,1.31,0,0,0-.55.42.85.85,0,0,0-.18.53,1.14,1.14,0,0,0,.09.48.85.85,0,0,0,.25.33,1,1,0,0,0,.37.19,1.76,1.76,0,0,0,.46.06,2.77,2.77,0,0,0,.6-.06,2.16,2.16,0,0,0,.52-.2,2.59,2.59,0,0,0,.46-.3,3.19,3.19,0,0,0,.43-.4Z" transform="translate(-1.73)"/><path d="M229,55.93a3.06,3.06,0,0,1,.83-1.14,1.79,1.79,0,0,1,1.19-.41,2,2,0,0,1,.43,0,1.11,1.11,0,0,1,.37.15l-.09.93a.2.2,0,0,1-.21.18l-.29,0a1.82,1.82,0,0,0-1,.05,1.42,1.42,0,0,0-.47.29,2,2,0,0,0-.37.48,3.94,3.94,0,0,0-.3.65V61.6h-1.25V54.51h.71a.39.39,0,0,1,.28.07.49.49,0,0,1,.11.27Z" transform="translate(-1.73)"/><path d="M237.51,55.77a.38.38,0,0,1-.11.11.25.25,0,0,1-.16,0,.42.42,0,0,1-.23-.09,2.48,2.48,0,0,0-.31-.19,2.4,2.4,0,0,0-.45-.2,2.13,2.13,0,0,0-.66-.08,2.27,2.27,0,0,0-.93.18,1.84,1.84,0,0,0-.67.54,2.34,2.34,0,0,0-.4.84,4.35,4.35,0,0,0-.14,1.12,3.94,3.94,0,0,0,.15,1.14A2.35,2.35,0,0,0,234,60a1.76,1.76,0,0,0,.66.52,2,2,0,0,0,.85.18,2.2,2.2,0,0,0,.75-.11,2,2,0,0,0,.49-.24l.32-.24a.37.37,0,0,1,.26-.11.26.26,0,0,1,.23.12l.35.45a2.41,2.41,0,0,1-.52.49,3,3,0,0,1-.64.34,3.23,3.23,0,0,1-.71.2,4.56,4.56,0,0,1-.75.06,3.15,3.15,0,0,1-1.24-.24,2.78,2.78,0,0,1-1-.71,3.31,3.31,0,0,1-.66-1.15,4.84,4.84,0,0,1-.23-1.54,4.62,4.62,0,0,1,.22-1.47,3.23,3.23,0,0,1,.64-1.15,2.83,2.83,0,0,1,1-.76,3.77,3.77,0,0,1,2.75,0,3.18,3.18,0,0,1,1,.69Z" transform="translate(-1.73)"/><path d="M240.51,55.45a3.87,3.87,0,0,1,1-.77,2.75,2.75,0,0,1,1.28-.29,2.54,2.54,0,0,1,1,.2,1.92,1.92,0,0,1,.74.54A2.39,2.39,0,0,1,245,56a3.48,3.48,0,0,1,.16,1.1V61.6h-1.25V57.08a1.94,1.94,0,0,0-.37-1.25,1.4,1.4,0,0,0-1.12-.44,2.16,2.16,0,0,0-1,.26,3.52,3.52,0,0,0-.89.72V61.6h-1.25V51.29h1.25Z" transform="translate(-1.73)"/><path d="M253.64,54.39a3.64,3.64,0,0,1,1.4.26,2.9,2.9,0,0,1,1.07.74,3.12,3.12,0,0,1,.67,1.15,4.87,4.87,0,0,1,0,3,3.2,3.2,0,0,1-.67,1.15,3,3,0,0,1-1.07.73,3.64,3.64,0,0,1-1.4.25,3.73,3.73,0,0,1-1.41-.25,3,3,0,0,1-1.06-.73,3.22,3.22,0,0,1-.68-1.15,5.07,5.07,0,0,1,0-3,3.14,3.14,0,0,1,.68-1.15,2.94,2.94,0,0,1,1.06-.74A3.73,3.73,0,0,1,253.64,54.39Zm0,6.33a1.81,1.81,0,0,0,1.57-.7,4,4,0,0,0,0-3.94,1.82,1.82,0,0,0-1.57-.71,2,2,0,0,0-.92.19,1.61,1.61,0,0,0-.66.52,2.17,2.17,0,0,0-.39.84,4.39,4.39,0,0,0-.13,1.13,3.25,3.25,0,0,0,.52,2A1.84,1.84,0,0,0,253.64,60.72Z" transform="translate(-1.73)"/><path d="M259.78,55.93a3.16,3.16,0,0,1,.82-1.14,1.84,1.84,0,0,1,1.2-.41,2,2,0,0,1,.43,0,1.11,1.11,0,0,1,.37.15l-.09.93a.2.2,0,0,1-.21.18l-.29,0a1.88,1.88,0,0,0-.43,0,1.78,1.78,0,0,0-.59.1,1.33,1.33,0,0,0-.47.29,2.06,2.06,0,0,0-.38.48,5,5,0,0,0-.29.65V61.6h-1.26V54.51h.72a.41.41,0,0,1,.28.07.49.49,0,0,1,.1.27Z" transform="translate(-1.73)"/><path d="M269.51,54.79v.46c0,.15-.09.25-.29.29l-.8.11a2.25,2.25,0,0,1,.23,1,2.09,2.09,0,0,1-.2.94,2,2,0,0,1-.55.72,2.45,2.45,0,0,1-.84.47A3.57,3.57,0,0,1,266,59a3.61,3.61,0,0,1-.94-.12,1.12,1.12,0,0,0-.34.3.51.51,0,0,0-.12.31.44.44,0,0,0,.21.39,1.55,1.55,0,0,0,.54.18,5.49,5.49,0,0,0,.77.07l.88,0a6.41,6.41,0,0,1,.88.11,2.58,2.58,0,0,1,.77.25,1.31,1.31,0,0,1,.74,1.28,1.85,1.85,0,0,1-.22.88,2.35,2.35,0,0,1-.66.76,3.28,3.28,0,0,1-1,.53,4.69,4.69,0,0,1-1.4.2,5.49,5.49,0,0,1-1.36-.15,3.05,3.05,0,0,1-1-.42,1.81,1.81,0,0,1-.58-.59,1.44,1.44,0,0,1-.19-.72,1.31,1.31,0,0,1,.32-.88,2.2,2.2,0,0,1,.91-.58,1.3,1.3,0,0,1-.5-.38,1,1,0,0,1-.19-.63.91.91,0,0,1,.06-.32,1.3,1.3,0,0,1,.17-.33,2,2,0,0,1,.28-.31,1.77,1.77,0,0,1,.39-.26,2.25,2.25,0,0,1-.81-.78,2.12,2.12,0,0,1-.3-1.13,2.2,2.2,0,0,1,.2-.94,1.9,1.9,0,0,1,.56-.72,2.4,2.4,0,0,1,.85-.46,3.74,3.74,0,0,1,1.94-.06,2.49,2.49,0,0,1,.73.3ZM268.25,62a.6.6,0,0,0-.15-.42,1,1,0,0,0-.4-.25,2.67,2.67,0,0,0-.57-.13c-.22,0-.45,0-.7-.06l-.75,0L265,61a1.82,1.82,0,0,0-.64.46.91.91,0,0,0-.25.64.89.89,0,0,0,.12.45,1.1,1.1,0,0,0,.38.36,1.85,1.85,0,0,0,.63.23,3.9,3.9,0,0,0,.9.09,4.09,4.09,0,0,0,.9-.09,2.35,2.35,0,0,0,.68-.26,1.24,1.24,0,0,0,.42-.4A.9.9,0,0,0,268.25,62ZM266,58.13a2,2,0,0,0,.67-.1,1.31,1.31,0,0,0,.48-.3,1.06,1.06,0,0,0,.29-.45,1.54,1.54,0,0,0,.1-.58,1.34,1.34,0,0,0-.4-1,1.54,1.54,0,0,0-1.14-.39,1.57,1.57,0,0,0-1.15.39,1.34,1.34,0,0,0-.4,1,1.76,1.76,0,0,0,.1.58,1.19,1.19,0,0,0,.3.45,1.31,1.31,0,0,0,.48.3A2,2,0,0,0,266,58.13Z" transform="translate(-1.73)"/><path d="M270.63,55.51a4.06,4.06,0,0,1,1.26-.85,3.9,3.9,0,0,1,1.51-.28,2.71,2.71,0,0,1,1.06.19,2.4,2.4,0,0,1,.77.55,2.35,2.35,0,0,1,.48.85,3.42,3.42,0,0,1,.16,1.09V61.6h-.55a.53.53,0,0,1-.28-.06.41.41,0,0,1-.16-.24l-.14-.67a5.51,5.51,0,0,1-.54.46,3.57,3.57,0,0,1-.56.33,2.34,2.34,0,0,1-.63.21,3.36,3.36,0,0,1-.74.08,2.43,2.43,0,0,1-.77-.12,1.71,1.71,0,0,1-.64-.34,1.73,1.73,0,0,1-.43-.59,2.1,2.1,0,0,1-.15-.84,1.5,1.5,0,0,1,.23-.8,2,2,0,0,1,.75-.69,4.85,4.85,0,0,1,1.35-.5,11,11,0,0,1,2-.22v-.55a1.88,1.88,0,0,0-.36-1.25,1.27,1.27,0,0,0-1-.42,2.41,2.41,0,0,0-.77.11,3.41,3.41,0,0,0-.54.26l-.39.26a.56.56,0,0,1-.33.12.44.44,0,0,1-.22-.07.5.5,0,0,1-.15-.17Zm4,2.89a10.8,10.8,0,0,0-1.46.14,4.27,4.27,0,0,0-1,.28,1.31,1.31,0,0,0-.55.42.85.85,0,0,0-.18.53,1,1,0,0,0,.1.48.83.83,0,0,0,.24.33,1,1,0,0,0,.37.19,1.76,1.76,0,0,0,.46.06,2.93,2.93,0,0,0,.61-.06,2.69,2.69,0,0,0,1-.5,3.19,3.19,0,0,0,.43-.4Z" transform="translate(-1.73)"/><path d="M278.94,55.53c.16-.17.32-.32.49-.47a6.49,6.49,0,0,1,.55-.36,3.29,3.29,0,0,1,.62-.23,3.13,3.13,0,0,1,.7-.08,2.56,2.56,0,0,1,1,.2,2,2,0,0,1,.74.54,2.39,2.39,0,0,1,.45.85,3.8,3.8,0,0,1,.15,1.1V61.6h-1.25V57.08a1.88,1.88,0,0,0-.37-1.25,1.36,1.36,0,0,0-1.11-.44,2.16,2.16,0,0,0-1,.26,3.52,3.52,0,0,0-.89.72V61.6h-1.25V54.51h.75a.31.31,0,0,1,.33.25Z" transform="translate(-1.73)"/><path d="M287.16,52.28a.8.8,0,0,1-.07.34,1.1,1.1,0,0,1-.2.28,1,1,0,0,1-.29.19.8.8,0,0,1-.34.07.77.77,0,0,1-.34-.07.92.92,0,0,1-.28-.19,1.07,1.07,0,0,1-.19-.28,1,1,0,0,1-.07-.34,1,1,0,0,1,.07-.35.92.92,0,0,1,.19-.28.8.8,0,0,1,.28-.2.94.94,0,0,1,.34-.07,1,1,0,0,1,.34.07.84.84,0,0,1,.29.2,1,1,0,0,1,.2.28A.84.84,0,0,1,287.16,52.28Zm-.27,2.23V61.6h-1.24V54.51Z" transform="translate(-1.73)"/><path d="M293.83,55a.78.78,0,0,1,0,.26,1.07,1.07,0,0,1-.13.21l-3.84,5.11h3.88v1h-5.34v-.52a.69.69,0,0,1,0-.22.76.76,0,0,1,.13-.23l3.86-5.15h-3.82v-1h5.26Z" transform="translate(-1.73)"/><path d="M295.08,55.51a4.22,4.22,0,0,1,1.27-.85,3.87,3.87,0,0,1,1.51-.28,2.66,2.66,0,0,1,1.05.19,2.2,2.2,0,0,1,1.26,1.4,3.72,3.72,0,0,1,.16,1.09V61.6h-.56a.55.55,0,0,1-.28-.06.45.45,0,0,1-.15-.24l-.14-.67a7.06,7.06,0,0,1-.55.46,2.84,2.84,0,0,1-.56.33,2.16,2.16,0,0,1-.62.21,3.36,3.36,0,0,1-.74.08,2.5,2.5,0,0,1-.78-.12,1.63,1.63,0,0,1-1.06-.93,2.1,2.1,0,0,1-.16-.84A1.6,1.6,0,0,1,295,59a2.11,2.11,0,0,1,.75-.69,5.05,5.05,0,0,1,1.36-.5,11,11,0,0,1,2-.22v-.55a1.88,1.88,0,0,0-.36-1.25,1.29,1.29,0,0,0-1-.42,2.37,2.37,0,0,0-.77.11,3.41,3.41,0,0,0-.54.26L296,56a.51.51,0,0,1-.32.12.41.41,0,0,1-.22-.07.5.5,0,0,1-.15-.17Zm4,2.89a11.14,11.14,0,0,0-1.47.14,4.32,4.32,0,0,0-1,.28,1.42,1.42,0,0,0-.56.42.9.9,0,0,0-.17.53,1.14,1.14,0,0,0,.09.48.85.85,0,0,0,.25.33,1,1,0,0,0,.37.19,1.7,1.7,0,0,0,.46.06,2.77,2.77,0,0,0,.6-.06,2.33,2.33,0,0,0,.52-.2,2.59,2.59,0,0,0,.46-.3,3.19,3.19,0,0,0,.43-.4Z" transform="translate(-1.73)"/><path d="M308.71,61.6h-1.24V55.55h-3.66V59.8a1,1,0,0,0,.22.67.77.77,0,0,0,.56.22.9.9,0,0,0,.34-.06,1.17,1.17,0,0,0,.25-.11l.18-.12a.27.27,0,0,1,.13,0,.21.21,0,0,1,.17.12l.37.59a2.38,2.38,0,0,1-.78.48,2.74,2.74,0,0,1-.94.17,1.71,1.71,0,0,1-1.29-.47,1.87,1.87,0,0,1-.45-1.35V55.55h-.86a.28.28,0,0,1-.19-.07.25.25,0,0,1-.07-.21v-.49l1.16-.16.29-2.18a.26.26,0,0,1,.09-.17.25.25,0,0,1,.19-.07h.63v2.44h4.9Zm.31-9.37a.8.8,0,0,1-.07.34,1.1,1.1,0,0,1-.2.28.92.92,0,0,1-.28.19,1,1,0,0,1-.35.06.88.88,0,0,1-.33-.06.92.92,0,0,1-.28-.19,1.07,1.07,0,0,1-.19-.28.8.8,0,0,1-.07-.34.84.84,0,0,1,.07-.35.92.92,0,0,1,.19-.28,1,1,0,0,1,.28-.2.88.88,0,0,1,.33-.07,1,1,0,0,1,.35.07,1,1,0,0,1,.48.48A.84.84,0,0,1,309,52.23Z" transform="translate(-1.73)"/><path d="M313.75,54.39a3.71,3.71,0,0,1,1.4.26,2.94,2.94,0,0,1,1.06.74,3.28,3.28,0,0,1,.68,1.15,5.07,5.07,0,0,1,0,3,3.37,3.37,0,0,1-.68,1.15,3,3,0,0,1-1.06.73,3.71,3.71,0,0,1-1.4.25,3.66,3.66,0,0,1-1.41-.25,3,3,0,0,1-1.07-.73,3.22,3.22,0,0,1-.68-1.15,5.07,5.07,0,0,1,0-3,3.14,3.14,0,0,1,.68-1.15,2.9,2.9,0,0,1,1.07-.74A3.65,3.65,0,0,1,313.75,54.39Zm0,6.33a1.79,1.79,0,0,0,1.56-.7,4,4,0,0,0,0-3.94,1.8,1.8,0,0,0-1.56-.71,2.06,2.06,0,0,0-.93.19,1.76,1.76,0,0,0-.66.52,2.51,2.51,0,0,0-.39.84,4.39,4.39,0,0,0-.13,1.13,3.25,3.25,0,0,0,.52,2A1.85,1.85,0,0,0,313.75,60.72Z" transform="translate(-1.73)"/><path d="M319.87,55.53c.16-.17.32-.32.49-.47a5.21,5.21,0,0,1,.55-.36,3.29,3.29,0,0,1,.62-.23,3.06,3.06,0,0,1,.7-.08,2.56,2.56,0,0,1,1,.2,2,2,0,0,1,.74.54,2.39,2.39,0,0,1,.45.85,3.8,3.8,0,0,1,.15,1.1V61.6h-1.25V57.08a1.88,1.88,0,0,0-.37-1.25,1.36,1.36,0,0,0-1.11-.44,2.2,2.2,0,0,0-1,.26,3.48,3.48,0,0,0-.88.72V61.6H318.7V54.51h.75a.3.3,0,0,1,.32.25Z" transform="translate(-1.73)"/><path d="M330.64,55.67a.27.27,0,0,1-.26.16.52.52,0,0,1-.24-.08l-.32-.17-.46-.18a2.35,2.35,0,0,0-.63-.08,2,2,0,0,0-.57.08,1.36,1.36,0,0,0-.43.23.91.91,0,0,0-.27.32.79.79,0,0,0-.1.4.65.65,0,0,0,.16.46,1.28,1.28,0,0,0,.42.31,3.49,3.49,0,0,0,.58.24l.68.21.67.26a2.3,2.3,0,0,1,.59.35,1.74,1.74,0,0,1,.42.51,1.68,1.68,0,0,1,.16.74,2.23,2.23,0,0,1-.18.9,1.85,1.85,0,0,1-.52.72,2.23,2.23,0,0,1-.84.48,3.33,3.33,0,0,1-1.14.18,3.61,3.61,0,0,1-1.35-.24,3.43,3.43,0,0,1-1-.62l.29-.48a.47.47,0,0,1,.14-.14.36.36,0,0,1,.19,0,.5.5,0,0,1,.27.1,2.89,2.89,0,0,0,.34.22,2.29,2.29,0,0,0,1.2.31,2.11,2.11,0,0,0,.64-.09,1.4,1.4,0,0,0,.45-.26,1.07,1.07,0,0,0,.27-.37,1.13,1.13,0,0,0,.09-.45.7.7,0,0,0-.16-.48,1.19,1.19,0,0,0-.42-.33,3.62,3.62,0,0,0-.59-.24l-.68-.21c-.23-.08-.45-.16-.68-.26a2.66,2.66,0,0,1-.59-.36,1.49,1.49,0,0,1-.41-.54,1.65,1.65,0,0,1-.16-.77,1.77,1.77,0,0,1,.17-.78,1.84,1.84,0,0,1,.49-.66,2.24,2.24,0,0,1,.79-.45,3.2,3.2,0,0,1,1.07-.17,3.58,3.58,0,0,1,1.26.22,3,3,0,0,1,1,.61Z" transform="translate(-1.73)"/><path d="M338.33,61.71a1.71,1.71,0,0,1-1.29-.47,1.87,1.87,0,0,1-.45-1.35V55.55h-.86a.28.28,0,0,1-.19-.07.25.25,0,0,1-.07-.21v-.49l1.16-.15.29-2.19a.26.26,0,0,1,.09-.17.25.25,0,0,1,.19-.07h.63v2.44h2.05v.91h-2.05V59.8a1,1,0,0,0,.22.67.77.77,0,0,0,.56.22.9.9,0,0,0,.34-.06l.25-.11.18-.12a.27.27,0,0,1,.13,0,.21.21,0,0,1,.17.12l.36.59a2.24,2.24,0,0,1-.77.48A2.79,2.79,0,0,1,338.33,61.71Z" transform="translate(-1.73)"/><path d="M344.13,54.39a3.71,3.71,0,0,1,1.4.26,2.94,2.94,0,0,1,1.06.74,3.28,3.28,0,0,1,.68,1.15,5.07,5.07,0,0,1,0,3,3.37,3.37,0,0,1-.68,1.15,3,3,0,0,1-1.06.73,3.71,3.71,0,0,1-1.4.25,3.66,3.66,0,0,1-1.41-.25,3,3,0,0,1-1.07-.73,3.22,3.22,0,0,1-.68-1.15,5.07,5.07,0,0,1,0-3,3.14,3.14,0,0,1,.68-1.15,2.9,2.9,0,0,1,1.07-.74A3.65,3.65,0,0,1,344.13,54.39Zm0,6.33a1.79,1.79,0,0,0,1.56-.7,4,4,0,0,0,0-3.94,1.8,1.8,0,0,0-1.56-.71,2.06,2.06,0,0,0-.93.19,1.76,1.76,0,0,0-.66.52,2.51,2.51,0,0,0-.39.84,4.39,4.39,0,0,0-.13,1.13,3.25,3.25,0,0,0,.52,2A1.85,1.85,0,0,0,344.13,60.72Z" transform="translate(-1.73)"/><path d="M354.84,61.71a1.75,1.75,0,0,1-1.3-.47,1.87,1.87,0,0,1-.45-1.35V55.55h-.85a.25.25,0,0,1-.19-.07.26.26,0,0,1-.08-.21v-.49l1.16-.15.29-2.19a.32.32,0,0,1,.1-.17.25.25,0,0,1,.19-.07h.63v2.44h2.05v.91h-2.05V59.8a.9.9,0,0,0,.22.67.77.77,0,0,0,.56.22.9.9,0,0,0,.34-.06,1.33,1.33,0,0,0,.24-.11l.18-.12a.27.27,0,0,1,.13,0,.21.21,0,0,1,.18.12l.36.59a2.19,2.19,0,0,1-.78.48A2.69,2.69,0,0,1,354.84,61.71Z" transform="translate(-1.73)"/><path d="M360.63,54.39a3.64,3.64,0,0,1,1.4.26,3,3,0,0,1,1.07.74,3.12,3.12,0,0,1,.67,1.15,4.87,4.87,0,0,1,0,3,3.2,3.2,0,0,1-.67,1.15,3.09,3.09,0,0,1-1.07.73,3.64,3.64,0,0,1-1.4.25,3.73,3.73,0,0,1-1.41-.25,3.09,3.09,0,0,1-1.07-.73,3.2,3.2,0,0,1-.67-1.15,4.87,4.87,0,0,1,0-3,3.12,3.12,0,0,1,.67-1.15,3,3,0,0,1,1.07-.74A3.73,3.73,0,0,1,360.63,54.39Zm0,6.33a1.83,1.83,0,0,0,1.57-.7,4,4,0,0,0,0-3.94,1.83,1.83,0,0,0-1.57-.71,2,2,0,0,0-.92.19,1.61,1.61,0,0,0-.66.52,2.34,2.34,0,0,0-.4.84,4.9,4.9,0,0,0-.12,1.13,3.25,3.25,0,0,0,.52,2A1.82,1.82,0,0,0,360.63,60.72Z" transform="translate(-1.73)"/><path d="M366.77,55.6a3.78,3.78,0,0,1,1-.88,2.59,2.59,0,0,1,1.34-.34,2.65,2.65,0,0,1,1.11.23,2.29,2.29,0,0,1,.85.7,3.39,3.39,0,0,1,.54,1.13,5.77,5.77,0,0,1,.19,1.57,4.84,4.84,0,0,1-.21,1.45,3.25,3.25,0,0,1-.61,1.17,2.8,2.8,0,0,1-1,.78,2.84,2.84,0,0,1-1.29.28,2.53,2.53,0,0,1-1.11-.22,2.59,2.59,0,0,1-.83-.61V64h-1.25V54.51h.75a.3.3,0,0,1,.33.25Zm.06,4.29a2,2,0,0,0,.75.65,2.09,2.09,0,0,0,.91.19A1.81,1.81,0,0,0,370,60a3.32,3.32,0,0,0,.53-2,5.23,5.23,0,0,0-.12-1.2,2.33,2.33,0,0,0-.35-.81,1.5,1.5,0,0,0-.57-.47,2.06,2.06,0,0,0-.76-.14,2,2,0,0,0-1.07.28,3,3,0,0,0-.85.79Z" transform="translate(-1.73)"/><path d="M379.19,61.71a1.71,1.71,0,0,1-1.29-.47,1.87,1.87,0,0,1-.45-1.35V55.55h-.86a.26.26,0,0,1-.19-.07.25.25,0,0,1-.07-.21v-.49l1.16-.15.28-2.19a.32.32,0,0,1,.1-.17.25.25,0,0,1,.19-.07h.63v2.44h2.05v.91h-2.05V59.8a.9.9,0,0,0,.22.67.77.77,0,0,0,.56.22.9.9,0,0,0,.34-.06l.25-.11.18-.12a.24.24,0,0,1,.12,0,.21.21,0,0,1,.18.12l.36.59a2.24,2.24,0,0,1-.77.48A2.79,2.79,0,0,1,379.19,61.71Z" transform="translate(-1.73)"/><path d="M381.85,55.51a4,4,0,0,1,1.27-.85,3.82,3.82,0,0,1,1.5-.28,2.71,2.71,0,0,1,1.06.19,2.15,2.15,0,0,1,1.25,1.4,3.42,3.42,0,0,1,.16,1.09V61.6h-.55a.53.53,0,0,1-.28-.06.41.41,0,0,1-.16-.24l-.14-.67a5.51,5.51,0,0,1-.54.46,3.57,3.57,0,0,1-.56.33,2.34,2.34,0,0,1-.63.21,3.36,3.36,0,0,1-.74.08,2.43,2.43,0,0,1-.77-.12,1.71,1.71,0,0,1-.64-.34,1.59,1.59,0,0,1-.42-.59,1.94,1.94,0,0,1-.16-.84,1.6,1.6,0,0,1,.23-.8,2,2,0,0,1,.75-.69,4.85,4.85,0,0,1,1.35-.5,11.06,11.06,0,0,1,2-.22v-.55a1.94,1.94,0,0,0-.35-1.25,1.31,1.31,0,0,0-1-.42,2.46,2.46,0,0,0-.77.11,3.41,3.41,0,0,0-.54.26l-.39.26a.56.56,0,0,1-.33.12.38.38,0,0,1-.21-.07.66.66,0,0,1-.16-.17Zm4,2.89a10.8,10.8,0,0,0-1.46.14,4.27,4.27,0,0,0-1,.28,1.38,1.38,0,0,0-.55.42.84.84,0,0,0-.17.53,1.14,1.14,0,0,0,.09.48.76.76,0,0,0,.25.33.87.87,0,0,0,.37.19,1.65,1.65,0,0,0,.46.06,2.84,2.84,0,0,0,.6-.06,2.69,2.69,0,0,0,1-.5,3.19,3.19,0,0,0,.43-.4Z" transform="translate(-1.73)"/><path d="M390.28,51.29V61.6H389V51.29Z" transform="translate(-1.73)"/><path d="M398.05,60.6a2.41,2.41,0,0,1-.56.49,3.17,3.17,0,0,1-.69.34,4.45,4.45,0,0,1-.76.2,5.09,5.09,0,0,1-.77.06,3.78,3.78,0,0,1-1.36-.24,3,3,0,0,1-1.07-.73,3.41,3.41,0,0,1-.7-1.19,4.75,4.75,0,0,1-.25-1.62,4.18,4.18,0,0,1,.22-1.39,3.39,3.39,0,0,1,.66-1.12,3,3,0,0,1,1-.74,3.41,3.41,0,0,1,1.39-.27,3.06,3.06,0,0,1,1.18.22,2.68,2.68,0,0,1,.94.61,2.72,2.72,0,0,1,.61,1,3.73,3.73,0,0,1,.23,1.34.89.89,0,0,1-.06.4.3.3,0,0,1-.24.09h-4.74a4,4,0,0,0,.18,1.17,2.45,2.45,0,0,0,.46.83,1.92,1.92,0,0,0,.7.5,2.42,2.42,0,0,0,.91.16,2.71,2.71,0,0,0,.81-.1,4.23,4.23,0,0,0,.59-.24,3.32,3.32,0,0,0,.4-.23.53.53,0,0,1,.29-.11.29.29,0,0,1,.24.12Zm-1-3.32a2.53,2.53,0,0,0-.12-.8,1.81,1.81,0,0,0-.36-.62,1.66,1.66,0,0,0-.57-.41,2.06,2.06,0,0,0-.76-.14,1.91,1.91,0,0,0-1.42.52,2.48,2.48,0,0,0-.65,1.45Z" transform="translate(-1.73)"/><path d="M400.86,55.53a5.44,5.44,0,0,1,.49-.47,5.21,5.21,0,0,1,.55-.36,2.84,2.84,0,0,1,1.32-.31,2.56,2.56,0,0,1,1,.2,2,2,0,0,1,.74.54,2.39,2.39,0,0,1,.45.85,3.8,3.8,0,0,1,.15,1.1V61.6h-1.25V57.08a1.88,1.88,0,0,0-.37-1.25,1.37,1.37,0,0,0-1.11-.44,2.2,2.2,0,0,0-1,.26,3.48,3.48,0,0,0-.88.72V61.6h-1.26V54.51h.75a.3.3,0,0,1,.33.25Z" transform="translate(-1.73)"/><path d="M409.58,61.71a1.75,1.75,0,0,1-1.3-.47,1.87,1.87,0,0,1-.45-1.35V55.55H407a.25.25,0,0,1-.19-.07.26.26,0,0,1-.08-.21v-.49l1.17-.15.28-2.19a.32.32,0,0,1,.1-.17.25.25,0,0,1,.19-.07h.63v2.44h2.05v.91h-2.05V59.8a.9.9,0,0,0,.22.67.77.77,0,0,0,.56.22.9.9,0,0,0,.34-.06,1.33,1.33,0,0,0,.24-.11l.18-.12a.27.27,0,0,1,.13,0,.21.21,0,0,1,.18.12l.36.59a2.19,2.19,0,0,1-.78.48A2.69,2.69,0,0,1,409.58,61.71Z" transform="translate(-1.73)"/></svg>