<?xml version="1.0" encoding="utf-8"?>
<!-- Generator: Adobe Illustrator 22.1.0, SVG Export Plug-In . SVG Version: 6.00 Build 0)  -->
<svg version="1.1" id="Capa_1" xmlns="http://www.w3.org/2000/svg" xmlns:xlink="http://www.w3.org/1999/xlink" x="0px" y="0px"
	 viewBox="0 0 156.8 202.2" style="enable-background:new 0 0 156.8 202.2;" xml:space="preserve">
<g>
	<g id="_x38_7_36_">
		<g>
			<path d="M38.9,57.5c-6.9,0-6.9,10.6,0,10.6c27.3,0,54.6,0,81.9,0c6.9,0,6.9-10.6,0-10.6C93.4,57.5,66.2,57.5,38.9,57.5z"/>
			<path d="M120.7,82.7c-27.3,0-54.6,0-81.9,0c-6.9,0-6.9,10.6,0,10.6c27.3,0,54.6,0,81.9,0C127.6,93.3,127.6,82.7,120.7,82.7z"/>
			<path d="M120.7,106c-27.3,0-54.6,0-81.9,0c-6.9,0-6.9,10.6,0,10.6c27.3,0,54.6,0,81.9,0C127.6,116.6,127.6,106,120.7,106z"/>
			<path d="M120.7,131.2c-27.3,0-54.6,0-81.9,0c-6.9,0-6.9,10.6,0,10.6c27.3,0,54.6,0,81.9,0C127.6,141.8,127.6,131.2,120.7,131.2z"
				/>
			<path d="M119.2,154.9c-27.3,0-54.6,0-81.9,0c-6.8,0-6.8,10.6,0,10.6c27.3,0,54.6,0,81.9,0C126,165.6,126,154.9,119.2,154.9z"/>
			<path d="M3.4,3.1v198.5h152.9v-171L127.8,3.1C127.8,3.1,3.4,3.1,3.4,3.1z M143,188.4H16.6V16.3H121v21h22L143,188.4L143,188.4z"
				/>
		</g>
	</g>
</g>
</svg>
