<?xml version="1.0" encoding="utf-8"?>
<!-- Generator: Adobe Illustrator 22.0.1, SVG Export Plug-In . SVG Version: 6.00 Build 0)  -->
<svg version="1.1" id="Layer_1" xmlns="http://www.w3.org/2000/svg" xmlns:xlink="http://www.w3.org/1999/xlink" x="0px" y="0px"
	 viewBox="0 0 120 120" style="enable-background:new 0 0 120 120;" xml:space="preserve">
<style type="text/css">
	.st0{fill:#324A5E;}
	.st1{fill:#2B3B4E;}
	.st2{fill:#E6E9EE;}
	.st3{fill:#FFFFFF;}
	.st4{fill:#CED5E0;}
	.st5{fill:#ACB3BA;}
	.st6{fill:#4CDBC4;}
	.st7{fill:#FF7058;}
	.st8{fill:#84DBFF;}
</style>
<circle class="st0" cx="60" cy="60" r="60"/>
<path class="st1" d="M7.4,88.8C17.6,107.4,37.3,120,60,120s42.4-12.6,52.6-31.2H7.4z"/>
<path class="st2" d="M95.1,75.9H24.9c-0.3,0-0.6-0.3-0.6-0.6V26.1c0-0.3,0.3-0.6,0.6-0.6h70.1c0.3,0,0.6,0.3,0.6,0.6v49.2
	C95.7,75.7,95.4,75.9,95.1,75.9z"/>
<rect x="28.2" y="30.5" class="st3" width="63.6" height="40.4"/>
<path class="st4" d="M106.7,83.7H13.3l8.9-6.4c1.3-0.9,2.9-1.4,4.4-1.4h66.7c1.6,0,3.1,0.5,4.4,1.4L106.7,83.7z"/>
<path class="st5" d="M13.3,83.7c0,2.9,2.4,5.3,5.3,5.3h82.9c2.9,0,5.3-2.4,5.3-5.3H13.3z"/>
<rect x="53.1" y="85.3" class="st0" width="13.8" height="1.8"/>
<rect x="31.5" y="33.9" class="st6" width="4.8" height="4.8"/>
<rect x="31.5" y="41" class="st7" width="4.8" height="4.8"/>
<path class="st8" d="M47,50.2h3.1c0.8-4.7,4.6-8.3,9.3-8.9v-3.1C53,38.8,47.8,43.8,47,50.2z"/>
<path class="st6" d="M50,52.9h-3.1c0.4,6.8,5.8,12.3,12.5,13v-3.1C54.3,62.1,50.4,58,50,52.9z"/>
<path class="st8" d="M71.5,52.9c-0.4,5.1-4.4,9.3-9.5,9.9v3.1c6.8-0.6,12.1-6.1,12.5-13H71.5z"/>
<path class="st7" d="M74.5,50.2c-0.8-6.4-6-11.4-12.4-12v3.1v8.1v0.8h9.3H74.5z"/>
<g>
	<polygon class="st0" points="76.9,35.6 72.1,40.4 73.4,41.7 77.7,37.5 84,37.5 84,35.6 	"/>
	<polygon class="st0" points="42.9,65.9 36.4,65.9 36.4,67.8 43.7,67.8 47.6,63.8 46.3,62.5 	"/>
	
		<rect x="45.3" y="37.8" transform="matrix(0.7071 -0.7071 0.7071 0.7071 -14.7202 44.4301)" class="st0" width="1.9" height="4.4"/>
	
		<rect x="72.5" y="62.5" transform="matrix(0.7071 -0.7071 0.7071 0.7071 -24.2605 70.8867)" class="st0" width="1.9" height="4.4"/>
</g>
</svg>
